<?xml version="1.0" standalone="no"?><!DOCTYPE svg PUBLIC "-//W3C//DTD SVG 1.1//EN" "http://www.w3.org/Graphics/SVG/1.1/DTD/svg11.dtd"><svg t="1587264177473" class="icon" viewBox="0 0 1024 1024" version="1.1" xmlns="http://www.w3.org/2000/svg" p-id="10828" xmlns:xlink="http://www.w3.org/1999/xlink" width="64" height="64"><defs><style type="text/css"></style></defs><path d="M732.638 683.179h-74.138c-9.426 0-17.067 7.641-17.067 17.067v26.624c0 9.426 7.641 17.067 17.067 17.067h74.138v74.138c0 9.426 7.641 17.067 17.067 17.067h26.624c9.426 0 17.067-7.641 17.067-17.067v-74.103h74.138c9.426 0 17.067-7.641 17.067-17.067v-26.624c0-9.426-7.641-17.067-17.067-17.067h-74.138v-74.138c0-9.426-7.641-17.067-17.067-17.067h-26.624c-9.426 0-17.067 7.641-17.067 17.067v74.103zM555.827 476.058c-48.746 57.775-78.37 133.065-78.37 215.273 0 0.17 0 0.34 0 0.51 0 78.343 26.829 150.501 71.782 207.641h-482.167c-19.763 0-32.939-16.282-32.939-35.123v-58.47c0-3.55 0.478-6.997 1.365-10.445 9.523-33.178 56.764-62.737 150.153-119.023 17.408-10.479 36.386-21.914 57.071-34.441 26.965-16.589 84.070-43.827 80.896-96.256-0.819-13.141-5.291-27.785-15.019-44.237-14.711-23.313-28.331-41.916-39.936-60.894-22.46-36.932-36.966-74.752-36.898-149.845-0.102-108.646 75.264-222.481 186.607-222.481 1.877 0 3.652 0.137 5.495 0.171 1.843-0.034 3.652-0.171 5.53-0.171 111.343 0 186.709 113.835 186.607 222.447 0.034 53.419-7.27 87.962-19.49 116.634-18.418 40.882-44.299 75.39-76.188 103.177l43.863-46.925-3.891 5.769-4.506 6.69zM763.017 915.593c-111.902 0-202.615-90.714-202.615-202.615s90.714-202.615 202.615-202.615c111.902 0 202.615 90.714 202.615 202.615 0 111.902-90.714 202.615-202.615 202.615z" p-id="10829"></path></svg>