<?xml version="1.0" standalone="no"?><!DOCTYPE svg PUBLIC "-//W3C//DTD SVG 1.1//EN" "http://www.w3.org/Graphics/SVG/1.1/DTD/svg11.dtd"><svg t="1587606972663" class="icon" viewBox="0 0 1024 1024" version="1.1" xmlns="http://www.w3.org/2000/svg" p-id="2511" xmlns:xlink="http://www.w3.org/1999/xlink" width="64" height="64"><defs><style type="text/css"></style></defs><path d="M753.80224 616.29952h86.97856v86.97856h30.69952v-86.97856H958.464v-30.69952h-86.98368V498.61632h-30.69952v86.98368h-86.97856z"  p-id="2512"></path><path d="M924.032 952.20224H99.94752l-43.42272-27.7504-2.6368-8.02816c-1.3056-3.9424-12.3392-39.50592-0.85504-76.42624l1.16736-3.75296 2.32448-3.2256c26.8288-36.77696 93.9264-73.60512 164.9408-112.6144 65.05472-35.73248 163.328-89.7024 163.9424-118.4512l0.07168-27.136c-62.09024-59.97568-96.13312-141.6704-96.13312-231.28064 0-138.60864 26.44992-280.32512 222.67904-280.35072 196.23424 0.0256 222.65856 141.74208 222.65856 280.35072 0 89.63072-34.09408 171.33056-96.13312 231.22944l0.09728 27.68384c0.59392 28.2112 98.88768 82.2272 163.9168 117.95456 70.9888 39.03488 138.0864 75.83232 164.8896 112.60928l2.3552 3.23072 1.18272 3.72736c11.44832 36.94592 0.43008 72.50944-0.87552 76.45184l-2.6368 8.02304-43.44832 27.75552z m-810.1888-47.48288h796.32384l16.64-10.61376c1.57184-8.30976 3.21024-22.272-0.13824-36.15744-22.95808-27.73504-85.92384-62.35136-146.944-95.87712-100.52608-55.22432-187.40224-102.92224-188.53888-159.07328l-0.16896-48.98304 7.8592-7.09632c56.9344-51.4048 88.3456-123.62752 88.3456-203.33056 0-147.46624-28.65664-232.84736-175.17056-232.86784-146.51392 0.02048-175.19616 85.4016-175.19616 232.86784 0 79.72864 31.36512 151.92576 88.32 203.33056l7.8592 7.09632-0.09216 48.4608c-1.18784 56.6784-88.0128 104.3712-188.5696 159.60064-61.01504 33.52064-124.05248 68.13696-146.98496 95.872-3.34848 13.86496-1.73568 27.87328-0.12288 36.15744l16.57344 10.61376z"  p-id="2513"></path></svg>