<?xml version="1.0" standalone="no"?><!DOCTYPE svg PUBLIC "-//W3C//DTD SVG 1.1//EN" "http://www.w3.org/Graphics/SVG/1.1/DTD/svg11.dtd"><svg t="1586829500645" class="icon" viewBox="0 0 1025 1024" version="1.1" xmlns="http://www.w3.org/2000/svg" p-id="16740" xmlns:xlink="http://www.w3.org/1999/xlink" width="64.0625" height="64"><defs><style type="text/css"></style></defs><path d="M952 74H74c-40.2 0-73 32.8-73 73v804c0 40.1 32.8 73 73 73h878c40.2 0 73-32.9 73-73V147c0-40.2-32.8-73-73-73z m21.6 899.5H50.4V309h923.2v664.5z" p-id="16741" ></path><path d="M685.2 436c-57 99.4-101.7 191.5-134.3 276.1-32.6 84.6-52.7 159.3-60.4 223.9H419c8.6-63.7 29.1-136.4 61.3-218.1 32.2-81.7 75.3-169.6 129.2-263.7H340.6v-60.6h344.6V436z" p-id="16742" ></path><path d="M252.5 244c-25.7 0-46.5-20.8-46.5-46.5v-151C206 20.8 226.8 0 252.5 0S299 20.8 299 46.5v151c0 25.7-20.8 46.5-46.5 46.5zM770.5 244c-25.7 0-46.5-20.8-46.5-46.5v-151C724 20.8 744.8 0 770.5 0S817 20.8 817 46.5v151c0 25.7-20.8 46.5-46.5 46.5z" p-id="16743"></path><path d="M253.8 214.1c-13.9 0-25.2-11.3-25.2-25.2V26.8c0-13.9 11.3-25.2 25.2-25.2 13.9 0 25.2 11.3 25.2 25.2v162.1c0 13.9-11.3 25.2-25.2 25.2zM771.8 214.1c-13.9 0-25.2-11.3-25.2-25.2V26.8c0-13.9 11.3-25.2 25.2-25.2 13.9 0 25.2 11.3 25.2 25.2v162.1c0 13.9-11.3 25.2-25.2 25.2z" p-id="16744" ></path></svg>