<?xml version="1.0" standalone="no"?><!DOCTYPE svg PUBLIC "-//W3C//DTD SVG 1.1//EN" "http://www.w3.org/Graphics/SVG/1.1/DTD/svg11.dtd"><svg t="1586746796580" class="icon" viewBox="0 0 1024 1024" version="1.1" xmlns="http://www.w3.org/2000/svg" p-id="12330" xmlns:xlink="http://www.w3.org/1999/xlink" width="64" height="64"><defs><style type="text/css"></style></defs><path d="M566.211765 493.929412l385.505882-385.505883c18.070588-18.070588 18.070588-54.211765 0-72.282353-18.070588-18.070588-54.211765-18.070588-72.282353 0L493.929412 421.647059 108.423529 36.141176C90.352941 18.070588 60.235294 18.070588 36.141176 36.141176c-18.070588 24.094118-18.070588 54.211765 0 72.282353L421.647059 493.929412 36.141176 879.435294c-18.070588 18.070588-18.070588 54.211765 0 72.282353 18.070588 18.070588 54.211765 18.070588 72.282353 0l385.505883-385.505882 385.505882 385.505882c18.070588 18.070588 54.211765 18.070588 72.282353 0 18.070588-18.070588 18.070588-54.211765 0-72.282353L566.211765 493.929412z" p-id="12331"></path></svg>