<?xml version="1.0" standalone="no"?><!DOCTYPE svg PUBLIC "-//W3C//DTD SVG 1.1//EN" "http://www.w3.org/Graphics/SVG/1.1/DTD/svg11.dtd"><svg t="1586831351944" class="icon" viewBox="0 0 1024 1024" version="1.1" xmlns="http://www.w3.org/2000/svg" p-id="27440" xmlns:xlink="http://www.w3.org/1999/xlink" width="64" height="64"><defs><style type="text/css"></style></defs><path d="M417.798004 1016.25296c28.669999 16.894999 51.196998 5.632 51.196998-28.669999V588.760977c0-34.301999-23.038999-68.602997-51.196998-85.497997L87.580017 297.963988c-28.669999-11.263-51.196998 0-51.196998 28.669999v398.821985c0 34.301999 23.038999 68.603997 51.196998 85.498996l330.217987 205.297992z m-279.020989-843.719967c-28.669999 16.894999-28.669999 39.932998 0 56.827998l325.097987 205.297992c28.669999 16.894999 68.603997 16.894999 96.761996 5.632l325.097987-165.364994c28.669999-16.894999 28.669999-39.932998 0-56.827998L543.229999 12.799c-23.038999-16.894999-68.603997-16.894999-96.761996 0L138.777015 172.532993z m421.859983 815.049968c0 34.301999 23.037999 45.564998 51.195998 28.669999l325.098987-165.364993c28.669999-16.894999 51.196998-51.196998 51.196998-85.497997V366.055986c0-34.301999-23.038999-45.564998-51.196998-28.669999L611.832996 502.74998c-28.669999 16.894999-51.195998 51.196998-51.195998 85.497997v399.333984z" p-id="27441"></path></svg>