<?xml version="1.0" standalone="no"?><!DOCTYPE svg PUBLIC "-//W3C//DTD SVG 1.1//EN" "http://www.w3.org/Graphics/SVG/1.1/DTD/svg11.dtd"><svg t="1586935593848" class="icon" viewBox="0 0 1024 1024" version="1.1" xmlns="http://www.w3.org/2000/svg" p-id="7119" xmlns:xlink="http://www.w3.org/1999/xlink" width="64" height="64"><defs><style type="text/css"></style></defs><path d="M963.84 913.92l-33.28-519.68c0-39.68-33.28-69.12-70.4-69.12L719.36 325.12l0-81.92c0-56.32-20.48-107.52-60.16-145.92C620.8 58.88 568.32 37.12 512 37.12c-113.92 0-207.36 92.16-207.36 206.08l0 81.92L163.84 325.12c-39.68 0-70.4 32-70.4 69.12L60.16 913.92l0 1.28c0 39.68 32 70.4 70.4 70.4l760.32 0c39.68 0 70.4-32 70.4-70.4C963.84 913.92 963.84 913.92 963.84 913.92L963.84 913.92zM377.6 244.48c0-74.24 60.16-133.12 134.4-133.12s134.4 60.16 134.4 133.12l0 81.92L377.6 326.4 377.6 244.48 377.6 244.48zM186.88 384c44.8 0 113.92 0 113.92 0l2.56 83.2c-8.96 8.96-14.08 20.48-14.08 34.56 0 16.64 8.96 32 20.48 40.96 6.4 8.96 16.64 14.08 28.16 14.08 11.52 0 23.04-6.4 28.16-14.08 14.08-8.96 20.48-24.32 20.48-40.96 0-14.08-5.12-25.6-14.08-34.56L372.48 384l271.36 0-1.28 83.2c-8.96 8.96-14.08 20.48-14.08 34.56 0 16.64 8.96 32 20.48 40.96 6.4 8.96 16.64 14.08 28.16 14.08 11.52 0 23.04-6.4 28.16-14.08 14.08-8.96 20.48-24.32 20.48-40.96 0-14.08-5.12-25.6-14.08-34.56l2.56-83.2c0 0 60.16 0 104.96 0 37.12 0 48.64 0 49.92 49.92 1.28 117.76 26.88 341.76 26.88 446.72 0 23.04-16.64 44.8-37.12 44.8-133.12 0-581.12 0-700.16 0-43.52 0-15.36 0-15.36 0S120.32 916.48 120.32 896c0-88.32 24.32-343.04 30.72-467.2C152.32 409.6 154.88 384 186.88 384z" p-id="7120"></path></svg>