<?xml version="1.0" standalone="no"?><!DOCTYPE svg PUBLIC "-//W3C//DTD SVG 1.1//EN" "http://www.w3.org/Graphics/SVG/1.1/DTD/svg11.dtd"><svg t="1586935490011" class="icon" viewBox="0 0 1024 1024" version="1.1" xmlns="http://www.w3.org/2000/svg" p-id="3526" xmlns:xlink="http://www.w3.org/1999/xlink" width="64" height="64"><defs><style type="text/css"></style></defs><path d="M828.1 685.2c20.9 13.3 37.6 31 50.2 53.1 12.6 22.1 19 46.4 19 73 0 20.9-3.9 40.3-11.8 58.3s-18.6 33.6-32.2 46.9c-13.6 13.3-29.4 23.9-47.4 31.8-18 7.9-37.4 11.8-58.3 11.8-26.5 0-50.7-6.3-72.5-19-21.8-12.6-39.3-29.1-52.6-49.3-2.5-2.5-4.7-5.2-6.6-8.1s-4.4-5.8-7.6-9c-10.1-13.9-16.4-31-19-51.2-2.5-20.2-3.5-41.2-2.8-63 0.6-21.8 1.3-43.3 1.9-64.5 0.6-21.2-0.9-40-4.7-56.4-7-12.6-14.8-26.4-23.7-41.2s-18.6-29.9-29.4-45c-1.9-2.5-3.6-4.7-5.2-6.6s-3-3.8-4.3-5.7c-12 14.5-23.7 29.1-35.1 43.6-11.4 14.5-23.1 29.7-35.1 45.5-3.2 3.8-5.8 7.6-8.1 11.4-2.2 3.8-4.9 7.6-8.1 11.4-5.7 12-8.5 22.4-8.5 31.3 0 8.8 1.1 17.5 3.3 26.1 2.2 8.5 4.7 17.2 7.6 26.1 2.8 8.8 4.4 19.1 4.7 30.8 0.3 11.7-1.3 25.4-4.7 41.2-3.5 15.8-10.3 34.8-20.4 56.9-10.7 28.4-28.7 51.6-54 69.6-25.3 18-54 27-86.3 27-20.9 0-40.3-3.9-58.3-11.8s-33.8-18.6-47.4-32.2c-13.6-13.6-24.3-29.4-32.2-47.4-7.9-18-11.8-37.4-11.8-58.3 0-22.7 4.7-43.9 14.2-63.5s22.4-36.3 38.9-50.2c15.8-16.4 32.4-30.2 49.8-41.2s34.6-21.3 51.7-30.8 33.3-19 48.8-28.4c15.5-9.5 28.9-20.9 40.3-34.1 2.5-3.2 4.9-6.3 7.1-9.5 2.2-3.2 4.6-6.3 7.1-9.5l0.9-0.9c2.5-5.1 6-9.8 10.4-14.2 8.8-11.4 17.7-23.2 26.5-35.5s18-24.8 27.5-37.4c-16.4-17.1-30.5-31-42.2-41.7s-22.9-23.4-33.6-37.9c-22.1-29.1-40.8-59.4-55.9-91-15.2-31.6-26.9-61.6-35.1-90s-12.5-53.9-12.8-76.3c-0.3-22.4 3.6-39 11.8-49.8 4.4-3.2 10.7-5.5 19-7.1s14.8 1.4 19.9 9c11.4 17.1 24.3 36.7 38.9 58.8 14.5 22.1 30.3 46 47.4 71.6s34.8 52.3 53.1 80.1 36.7 55.3 55 82.5c3.8-5.1 7.4-10.3 10.9-15.6 3.5-5.4 7.1-10.6 10.9-15.6 17.1-24.6 33.5-50.1 49.3-76.3 15.8-26.2 30.5-51.3 44.1-75.4 13.6-24 25.6-45.7 36-64.9 10.4-19.3 18.5-34 24.2-44.1 4.4-7 12-10.6 22.7-10.9 10.7-0.3 19.9 3 27.5 10 3.8 3.8 7.1 14.7 10 32.7s1.9 41.2-2.8 69.7-14.8 61.1-30.3 98.1-39.7 76.3-72.5 118l-30.3 37.9c-10.1 12.6-20.5 25.3-31.3 37.9 14.5 22.1 28.3 43 41.2 62.6s24.8 37.3 35.5 53.1c15.8 16.4 31.8 29.4 47.9 38.9 16.1 9.5 31.4 17.5 46 24.2 14.5 6.6 28.1 12.8 40.8 18.5 12.4 5 23.4 12.3 32.9 21.1zM275.5 880.5c20.2 0 37.4-7.3 51.7-21.8 14.2-14.5 21.3-31.9 21.3-52.1s-7.1-37.6-21.3-52.1c-14.2-14.5-31.4-21.8-51.7-21.8-20.2 0-37.6 7.3-52.1 21.8s-21.8 31.9-21.8 52.1 7.3 37.6 21.8 52.1 31.9 21.8 52.1 21.8z m471.1 0c20.2 0 37.4-7.1 51.7-21.3 14.2-14.2 21.3-31.4 21.3-51.7 0-20.2-7.1-37.6-21.3-52.1-14.2-14.5-31.4-21.8-51.7-21.8s-37.6 7.3-52.1 21.8-21.8 31.9-21.8 52.1c0 10.1 1.9 19.6 5.7 28.4 3.8 8.8 9 16.6 15.6 23.2 6.6 6.6 14.5 11.8 23.7 15.6 9.1 3.9 18.8 5.8 28.9 5.8z" p-id="3527"></path></svg>