<?xml version="1.0" standalone="no"?><!DOCTYPE svg PUBLIC "-//W3C//DTD SVG 1.1//EN" "http://www.w3.org/Graphics/SVG/1.1/DTD/svg11.dtd"><svg t="1587263217093" class="icon" viewBox="0 0 1216 1024" version="1.1" xmlns="http://www.w3.org/2000/svg" p-id="10001" xmlns:xlink="http://www.w3.org/1999/xlink" width="76" height="64"><defs><style type="text/css"></style></defs><path d="M1052.8 364.8c12.8 22.4-16-41.6-64-41.6H227.2c-28.8 0-48 12.8-64 38.4-16 25.6-156.8 240-156.8 284.8v291.2c0 44.8 38.4 83.2 83.2 83.2h1036.8c44.8 0 83.2-35.2 83.2-83.2V646.4c0-41.6-156.8-281.6-156.8-281.6s-22.4-41.6 0 0z m-272 262.4c-19.2 0-35.2 9.6-38.4 28.8v6.4c0 73.6-60.8 134.4-134.4 134.4-73.6 0-134.4-60.8-134.4-134.4v-9.6c-9.6-25.6-38.4-25.6-38.4-25.6H80l121.6-220.8S224 368 256 368h716.8c25.6 0 28.8 9.6 48 38.4l121.6 220.8H780.8zM348.8 208L256 118.4c-9.6-6.4-9.6-22.4 0-32 9.6-9.6 25.6-9.6 35.2 0l92.8 86.4c9.6 9.6 9.6 25.6 0 35.2-9.6 6.4-25.6 9.6-35.2 0m252.8-38.4c-3.2-3.2-6.4-9.6-6.4-16L592 28.8c0-12.8 9.6-25.6 22.4-25.6C627.2 0 640 9.6 640 22.4l3.2 124.8c0 9.6-6.4 19.2-16 22.4-9.6 6.4-19.2 6.4-25.6 0m236.8 32c-3.2-3.2-6.4-9.6-6.4-16s3.2-12.8 6.4-16l86.4-92.8c9.6-9.6 25.6-9.6 35.2 0 9.6 9.6 9.6 25.6 0 35.2l-86.4 92.8c-3.2 3.2-9.6 6.4-16 6.4-9.6-3.2-16-3.2-19.2-9.6" p-id="10002" fill="#cdcdcd"></path></svg>