<?xml version="1.0" standalone="no"?><!DOCTYPE svg PUBLIC "-//W3C//DTD SVG 1.1//EN" "http://www.w3.org/Graphics/SVG/1.1/DTD/svg11.dtd"><svg t="1586935432929" class="icon" viewBox="0 0 1024 1024" version="1.1" xmlns="http://www.w3.org/2000/svg" p-id="2160" xmlns:xlink="http://www.w3.org/1999/xlink" width="64" height="64"><defs><style type="text/css"></style></defs><path d="M510.114 959.516c-119.434 0-231.73-46.511-316.157-130.903C109.5 744.107 63.011 631.822 63.033 512.346c0-119.463 46.52-231.77 130.992-316.233C278.463 111.68 390.748 65.167 510.192 65.167c119.485 0 231.76 46.513 316.241 130.938 174.337 174.404 174.315 458.092 0 632.42C741.932 912.97 629.6 959.516 510.114 959.516z m0.078-836.066c-103.89 0-201.53 40.436-274.975 113.867-73.457 73.423-113.914 171.117-113.914 275.029C121.29 616.27 161.717 713.952 235.15 787.4c73.436 73.398 171.105 113.88 274.964 113.88 103.924 0 201.626-40.502 275.106-113.969 151.614-151.598 151.614-398.341 0-549.99-73.467-73.436-171.126-113.871-275.028-113.871z m-158.9 510.936s52.39 83.75 158.81 83.75 176.208-83.75 176.208-83.75 39.555-0.132 39.546 41.873c0 0-68.598 97.706-215.754 97.706-147.171 0-195.06-97.706-195.06-97.706s-1.45-41.873 36.253-41.873h-0.003z m28.876-265.83c-30.155 0-54.763 24.526-54.763 54.77 0 30.204 24.607 54.738 54.763 54.738 30.292 0 54.764-24.534 54.764-54.738-0.001-30.244-24.472-54.77-54.764-54.77z m280.579 0c-30.2 0-54.725 24.526-54.725 54.77 0 30.204 24.526 54.738 54.725 54.738 30.258 0 54.77-24.534 54.77-54.738 0-30.244-24.512-54.77-54.77-54.77z m0 0"  p-id="2161"></path></svg>