<?xml version="1.0" standalone="no"?><!DOCTYPE svg PUBLIC "-//W3C//DTD SVG 1.1//EN" "http://www.w3.org/Graphics/SVG/1.1/DTD/svg11.dtd"><svg t="1587259285037" class="icon" viewBox="0 0 1024 1024" version="1.1" xmlns="http://www.w3.org/2000/svg" p-id="4882" xmlns:xlink="http://www.w3.org/1999/xlink" width="64" height="64"><defs><style type="text/css"></style></defs><path d="M873.94408 761.411947c-49.453362-43.495224-146.959555-48.037486-185.158542-97.355807-11.642103-2.498244-23.527687-4.777559-36.597943-5.96223-20.897472-22.893408-22.069867-73.050615-17.224788-113.2527 35.231172-8.546408 60.342513-26.441282 96.883166-33.777444 3.147869-5.672712 5.836397-13.272816 21.534821-11.920368-76.720231-92.257016-19.979813-267.08089-92.580294-361.615176-23.831528-31.031626-67.394272-50.223705-116.265529-53.646769-41.099283-2.877789-98.3993-2.728426-111.948334 19.868302-7.465064-1.454751-11.464095-6.095224-19.377247-1.986728-130.580814 54.998195-55.170064 300.105383-139.942579 397.379348 17.797686-1.520225 18.702046 7.77095 25.834624 11.919345 32.00453 10.868691 62.486788 23.135866 92.576202 35.765195 8.419552 40.385207-13.58791 108.853663-15.789474 111.265972-13.069232 1.185694-24.952771 3.465009-36.595897 5.961207-38.200011 49.318322-135.703135 53.85956-185.156496 97.357853C107.441526 802.476448 68.20723 1013.682405 86.786512 1023.679473c12.649789 0 824.869593 0.721237 849.310848 0C958.788207 1009.17595 919.747264 801.694851 873.94408 761.411947z" p-id="4883"></path></svg>