<?xml version="1.0" standalone="no"?><!DOCTYPE svg PUBLIC "-//W3C//DTD SVG 1.1//EN" "http://www.w3.org/Graphics/SVG/1.1/DTD/svg11.dtd"><svg t="1586935570814" class="icon" viewBox="0 0 1080 1024" version="1.1" xmlns="http://www.w3.org/2000/svg" p-id="6342" xmlns:xlink="http://www.w3.org/1999/xlink" width="67.5" height="64"><defs><style type="text/css"></style></defs><path d="M960.001067 142.236918h-412.437571L380.426727 7.128059C369.788682 3.544119 362.677689 0.017066 355.566696 0.017066H106.681956A104.787587 104.787587 0 0 0 0.017067 106.681955v782.209186C0.017067 949.363022 46.266963 995.55603 106.681956 995.55603h853.319111a104.787587 104.787587 0 0 0 106.664889-106.664889V248.901807A104.787587 104.787587 0 0 0 960.001067 142.236918z m35.554963 746.654223c0 21.332978-14.221985 35.554963-35.554963 35.554963h-853.319111c-21.332978 0-35.554963-14.221985-35.554963-35.554963V426.676622H995.55603v462.214519z m0-533.324445H71.126993V106.681955c0-21.332978 14.221985-35.554963 35.554963-35.554963H341.344711l167.13677 135.10886c10.638045 3.58394 17.749038 7.110993 24.86003 7.110992h426.659556c21.332978 0 35.554963 14.221985 35.554963 35.554963V355.566696z" p-id="6343"></path></svg>