<?xml version="1.0" standalone="no"?><!DOCTYPE svg PUBLIC "-//W3C//DTD SVG 1.1//EN" "http://www.w3.org/Graphics/SVG/1.1/DTD/svg11.dtd"><svg t="1586935519785" class="icon" viewBox="0 0 1024 1024" version="1.1" xmlns="http://www.w3.org/2000/svg" p-id="4280" xmlns:xlink="http://www.w3.org/1999/xlink" width="64" height="64"><defs><style type="text/css"></style></defs><path d="M848.521406 118.015857H175.46836c-61.691037 0-112.167662 50.656727-112.167662 112.565729v562.836828c0 61.914118 50.476625 112.566752 112.167662 112.566752h673.052023c61.697177 0 112.177895-50.65161 112.177896-112.566752V230.580562c0.001023-61.909002-50.480718-112.564705-112.176873-112.564705z m56.090483 611.351776L770.004145 557.026496c-16.830317-28.14399-50.482765-28.14399-72.91773-5.627161L540.043706 708.990536 377.38407 500.743632c-16.825201-22.512736-44.870953-22.512736-67.307966 0L119.381971 731.358987V230.580562c0-33.765011 22.434965-56.280818 56.086389-56.280817h673.052023c28.045753 0 56.091506 28.139897 56.091506 56.280817v498.787071zM711.711508 311.593667a84.466764 84.466764 0 0 0-27.29874-18.302854A84.156702 84.156702 0 0 0 652.215462 286.866497a84.130096 84.130096 0 0 0-32.191166 6.424316 84.269265 84.269265 0 0 0-27.293623 18.302854 84.668355 84.668355 0 0 0-18.240433 27.391861 84.887342 84.887342 0 0 0-6.40692 32.30373 84.910878 84.910878 0 0 0 6.40692 32.30987 84.694961 84.694961 0 0 0 18.240433 27.39186 84.252893 84.252893 0 0 0 27.293623 18.300808 84.158748 84.158748 0 0 0 32.191166 6.426363 84.162842 84.162842 0 0 0 32.197306-6.426363 84.444251 84.444251 0 0 0 27.29874-18.300808 84.655052 84.655052 0 0 0 18.2302-27.39186 84.910878 84.910878 0 0 0 6.40692-32.30987c0-11.051707-2.190899-22.096251-6.40692-32.30373a84.693938 84.693938 0 0 0-18.2302-27.391861z" p-id="4281"></path></svg>