<?xml version="1.0" standalone="no"?><!DOCTYPE svg PUBLIC "-//W3C//DTD SVG 1.1//EN" "http://www.w3.org/Graphics/SVG/1.1/DTD/svg11.dtd"><svg t="1587608653981" class="icon" viewBox="0 0 1024 1024" version="1.1" xmlns="http://www.w3.org/2000/svg" p-id="8250" xmlns:xlink="http://www.w3.org/1999/xlink" width="64" height="64"><defs><style type="text/css"></style></defs><path d="M402.75199999 146.752l-320 320c-24.992 24.992-24.992 65.504 0 90.496l320 320c24.992 24.992 65.504 24.992 90.496 0s24.992-65.504 0-90.496l-210.75199999-210.75199999 613.504-1e-8c35.36 0 64-28.64 64-64s-28.64-64-64-64l-613.504-1e-8 210.75199999-210.75199999c12.48-12.51200001 18.752-28.864 18.75200001-45.248s-6.24-32.768-18.75200001-45.248c-24.992-24.992-65.504-24.992-90.496 0z" p-id="8251"></path></svg>