<?xml version="1.0" standalone="no"?><!DOCTYPE svg PUBLIC "-//W3C//DTD SVG 1.1//EN" "http://www.w3.org/Graphics/SVG/1.1/DTD/svg11.dtd"><svg t="1586849210717" class="icon" viewBox="0 0 1024 1024" version="1.1" xmlns="http://www.w3.org/2000/svg" p-id="33732" xmlns:xlink="http://www.w3.org/1999/xlink" width="64" height="64"><defs><style type="text/css"></style></defs><path d="M866.68151 913.081795c-6.707772-9.719362-13.415544-19.438725-20.12434-29.158087-16.001439-23.183002-32.001855-46.36805-48.003294-69.551052-19.10922-27.687596-38.21844-55.373145-57.326637-83.059718-16.032138-23.229051-32.064276-46.457078-48.095391-69.686129-2.039449-2.956332-4.079922-5.910617-6.119371-8.866948 39.186488-30.66337 71.733765-69.831438 93.571119-114.638947 22.186302-45.518706 33.987069-95.437629 34.056654-146.121985-0.081864-59.07649-16.047488-117.835755-46.209438-168.657234-29.169343-49.148373-71.519894-90.62195-121.18606-118.871341-51.426253-29.249161-110.836341-44.150546-169.963996-42.923602-58.832943 1.220804-117.296473 18.351973-167.274748 49.457412-48.527227 30.200836-89.304955 73.16844-116.517737 123.461893-28.218692 52.151777-42.142819 111.900579-39.600927 171.163311 2.51631 58.664098 20.564361 116.613928 52.665477 165.853375 31.230282 47.90301 74.7781 87.951121 125.69884 114.1232 52.856835 27.167756 112.879883 40.108486 172.250062 36.245506 47.604204-3.097548 94.479815-16.217357 136.429229-38.833447 1.433652 2.076288 2.867304 4.1536 4.299933 6.229888 16.001439 23.183002 32.001855 46.36805 48.003294 69.551052 19.10922 27.687596 38.21844 55.373145 57.326637 83.059718 16.032138 23.229051 32.064276 46.457078 48.095391 69.686129 6.770194 9.809413 13.540388 19.617803 20.310581 29.427216l0.001023 0c4.205788 6.094812 9.182127 10.68127 16.512069 12.697183 7.131421 1.961678 14.908548 0.953721 21.290909-2.785439 6.175653-3.617387 10.796904-9.605775 12.69616-16.512069C871.307877 927.680281 870.740966 918.962735 866.68151 913.081795zM447.013405 665.006789c-24.003693-3.561106-47.509037-9.981329-69.988004-19.126616-21.712511-9.506515-42.252313-21.527292-61.191664-35.777855-18.452257-14.640442-35.174104-31.360242-49.814546-49.812499-14.254655-18.943444-26.27748-39.48734-35.786041-61.204967-9.140171-22.464641-15.557324-45.953611-19.119453-69.941955-2.986007-24.662703-2.984984-49.629327 0.001023-74.291007 3.562129-23.986297 9.979282-47.475268 19.119453-69.939909 9.507538-21.713534 21.527292-42.253336 35.778878-61.194734 14.641465-18.454304 31.363312-35.177174 49.817616-49.818639 18.941398-14.252609 39.482223-26.272363 61.196781-35.779901 22.471804-9.143241 45.969984-15.561417 69.965491-19.123546 24.645306-2.981914 49.595558-2.982938 74.240865 0 23.99346 3.561106 47.487547 9.978259 69.957305 19.119453 21.712511 9.505491 42.25129 21.524223 61.191664 35.773761 18.458397 14.642488 35.18536 31.368428 49.827849 49.824779 14.253632 18.941398 26.27441 39.482223 35.781948 61.196781 9.146311 22.479991 15.566534 45.987381 19.126616 69.992097 1.488911 12.310374 2.245134 24.693402 2.26253 37.095873-0.017396 12.402471-0.773619 24.784476-2.261507 37.093826-3.561106 24.00574-9.981329 47.51313-19.126616 69.993121-9.509585 21.718651-21.533432 42.263569-35.790134 61.208037-14.641465 18.452257-31.365358 35.175127-49.821709 49.815569-18.940374 14.249539-39.477107 26.26827-61.189617 35.773761-22.476921 9.144264-45.980217 15.562441-69.981864 19.123546C496.580311 667.98461 471.644385 667.98461 447.013405 665.006789z" p-id="33733"></path></svg>