<?xml version="1.0" standalone="no"?><!DOCTYPE svg PUBLIC "-//W3C//DTD SVG 1.1//EN" "http://www.w3.org/Graphics/SVG/1.1/DTD/svg11.dtd"><svg t="1587259245144" class="icon" viewBox="0 0 1024 1024" version="1.1" xmlns="http://www.w3.org/2000/svg" p-id="2177" xmlns:xlink="http://www.w3.org/1999/xlink" width="64" height="64"><defs><style type="text/css"></style></defs><path d="M22.398307 1024s16.618098-132.764156 46.061033-160.942671c29.442935-28.178515 41.364615-78.755336 197.791498-101.876168 156.246252-23.120833 139.808785-105.308167 144.866467-102.779326-0.903158-31.068619-3.973893-74.962074-3.973893-74.962075s-81.464809-34.500617-105.488799-102.779326c-50.215558-20.230729-43.532193-33.236197-48.589875-59.247134 0 0-15.173046-105.850062 18.785677-103.682483 0 0 22.037044 0 16.618098-24.385253-1.806315-40.461457-1.806315-119.036162 0.903157-145.950256 2.709473-27.094726 22.75957-100.069854 79.477863-110.907744s33.958723-5.418945 52.92503-8.128418 13.547363-13.547363 48.589875-13.547363L543.339566 0c35.042512 0 57.62145 57.260187 76.407127 59.96966 18.966308 2.709473 23.482096-8.309049 62.137237-1.083789 56.718292 10.83789 48.770506 87.967543 51.479979 115.062268s7.767155 100.431117 2.34821 124.635738c-5.418945 24.204622 11.379785 21.675781 11.379784 21.675781 40.461457 0 27.817252 103.682484 27.817252 103.682483-6.141471 27.455989-23.120833 30.707356-60.872817 54.550715-23.843359 68.278709-100.431117 118.494267-100.431117 118.494267s-0.361263 56.718292-0.722526 68.820603c1.083789 4.877051-8.670312 75.323337 124.455107 95.192803 156.246252 23.120833 183.340977 73.878285 212.603281 101.876169 29.442935 28.178515 51.479979 160.942671 51.479979 160.94267h-979.022755z" p-id="2178"></path></svg>