<?xml version="1.0" standalone="no"?><!DOCTYPE svg PUBLIC "-//W3C//DTD SVG 1.1//EN" "http://www.w3.org/Graphics/SVG/1.1/DTD/svg11.dtd"><svg t="1586829582748" class="icon" viewBox="0 0 1331 1024" version="1.1" xmlns="http://www.w3.org/2000/svg" p-id="20344" xmlns:xlink="http://www.w3.org/1999/xlink" width="83.1875" height="64"><defs><style type="text/css"></style></defs><path d="M 983.936 1009.89 v -37.0688 c 0 -101.709 -175.795 -201.011 -332.186 -253.773 c -7.168 -2.3808 -52.224 -23.0912 -23.9872 -110.31 h -0.512 c 73.4464 -76.9024 129.587 -200.832 129.587 -322.842 C 756.838 98.3808 634.368 0 491.981 0 C 349.517 0 227.738 98.2784 227.738 285.901 c 0 122.522 55.808 246.886 129.69 323.712 c 28.7744 76.9024 -22.7328 105.472 -33.4848 109.389 C 174.899 773.939 0 874.035 0 972.774 v 37.0688" p-id="20345"></path><path d="M 1331.2 204.8 H 868.173 v 87.7824 H 1331.2 Z M 1331.2 438.861 H 954.982 v 87.7824 H 1331.2 Z M 1331.2 643.661 H 1012.86 v 87.7824 H 1331.2 Z" p-id="20346"></path></svg>