<?xml version="1.0" standalone="no"?><!DOCTYPE svg PUBLIC "-//W3C//DTD SVG 1.1//EN" "http://www.w3.org/Graphics/SVG/1.1/DTD/svg11.dtd"><svg t="1586845458295" class="icon" viewBox="0 0 1024 1024" version="1.1" xmlns="http://www.w3.org/2000/svg" p-id="30251" xmlns:xlink="http://www.w3.org/1999/xlink" width="64" height="64"><defs><style type="text/css"></style></defs><path d="M861.175 95.305h-525.5c-35.35 0-64 28.65-64 64v176.18h64v-176.18h525.5v522.96h-177.42v64h177.42c35.34 0 64-28.65 64-64v-522.96c0-35.35-28.66-64-64-64z" p-id="30252"></path><path d="M683.755 271.485h-525.5c-35.35 0-64 28.66-64 64v522.97c0 35.35 28.65 64 64 64h525.5c35.34 0 64-28.65 64-64v-522.97c0-35.34-28.66-64-64-64z m0 586.97h-525.5v-522.97h525.5v522.97z" p-id="30253"></path></svg>