<?xml version="1.0" standalone="no"?><!DOCTYPE svg PUBLIC "-//W3C//DTD SVG 1.1//EN" "http://www.w3.org/Graphics/SVG/1.1/DTD/svg11.dtd"><svg t="1587695759554" class="icon" viewBox="0 0 1024 1024" version="1.1" xmlns="http://www.w3.org/2000/svg" p-id="4441" xmlns:xlink="http://www.w3.org/1999/xlink" width="64" height="64"><defs><style type="text/css"></style></defs><path d="M977.455 426.56l-31.88-11.477a106.48 106.48 0 0 1-63.762-59.297 106.48 106.48 0 0 1 0-86.715l14.665-30.605a63.76 63.76 0 0 0-12.752-72.688l-33.793-33.793a63.76 63.76 0 0 0-72.688-12.752l-30.605 14.665a106.48 106.48 0 0 1-86.715 0 106.48 106.48 0 0 1-59.297-63.761l-7.014-28.055A63.76 63.76 0 0 0 533.679 0h-47.183a63.76 63.76 0 0 0-59.936 42.082l-11.477 31.88a106.48 106.48 0 0 1-59.297 63.762 106.48 106.48 0 0 1-86.715 0l-30.605-14.665a63.76 63.76 0 0 0-72.688 12.752l-33.793 33.793a63.76 63.76 0 0 0-12.752 72.687l14.665 30.606a106.48 106.48 0 0 1 0 86.714 106.48 106.48 0 0 1-63.761 59.298l-31.88 11.477A63.76 63.76 0 0 0 0 486.496v47.183a63.76 63.76 0 0 0 42.72 59.935L74.6 605.09a106.48 106.48 0 0 1 63.761 59.298 106.48 106.48 0 0 1 0 86.714l-14.665 30.606a63.76 63.76 0 0 0 12.752 72.687l33.794 33.793a63.76 63.76 0 0 0 72.687 12.752l30.605-14.665a106.48 106.48 0 0 1 86.715 0 106.48 106.48 0 0 1 59.298 63.761l11.477 31.88A63.76 63.76 0 0 0 490.959 1024h47.183a63.76 63.76 0 0 0 59.935-42.082l11.477-31.243a107.118 107.118 0 0 1 59.935-63.76 105.205 105.205 0 0 1 85.44 0l31.243 14.664a63.76 63.76 0 0 0 72.687-12.752l33.794-33.793a63.76 63.76 0 0 0 12.752-72.688l-14.665-30.605a106.48 106.48 0 0 1 0-86.077 106.48 106.48 0 0 1 63.76-59.298l31.881-11.477a63.76 63.76 0 0 0 33.793-61.21v-47.183a63.76 63.76 0 0 0-42.72-59.936z m-279.91 121.146A191.283 191.283 0 1 1 472.467 322.63a191.283 191.283 0 0 1 225.076 225.076z" fill="" p-id="4442"></path></svg>