<?xml version="1.0" standalone="no"?><!DOCTYPE svg PUBLIC "-//W3C//DTD SVG 1.1//EN" "http://www.w3.org/Graphics/SVG/1.1/DTD/svg11.dtd"><svg t="1586834182966" class="icon" viewBox="0 0 1167 1024" version="1.1" xmlns="http://www.w3.org/2000/svg" p-id="29499" xmlns:xlink="http://www.w3.org/1999/xlink" width="72.9375" height="64"><defs><style type="text/css"></style></defs><path d="M313.344 407.552c1.536-121.344 78.848-199.68 199.68-200.704 100.864-1.024 202.24-1.536 303.104 0.512 36.352 1.024 43.008-12.8 38.4-44.544C842.24 77.312 769.536 13.312 676.864 12.8a39485.97 39485.97 0 0 0-492.544 0C76.8 13.312 4.096 84.48 1.536 191.488a4000.533 4000.533 0 0 0 0 221.696c2.048 90.624 52.736 153.6 140.8 173.568 27.648 6.144 32.256 13.312 20.992 37.888-19.968 45.568-36.864 92.16-55.296 138.24 3.584 3.072 7.168 5.632 11.264 8.704 51.712-32.256 102.4-66.048 155.648-95.744 28.672-15.872 40.448-35.328 38.912-68.608-2.56-66.048-1.536-133.12-0.512-199.68z" p-id="29500"></path><path d="M1165.824 409.6c-2.048-98.816-59.904-163.328-156.16-165.376a11780.867 11780.867 0 0 0-503.296 0C415.232 245.76 354.816 307.2 350.72 398.848c-3.584 90.112-3.584 180.736 0 270.336 4.096 95.744 69.12 153.6 166.4 155.136 54.272 1.024 108.544 2.048 162.304-0.512 41.472-2.048 76.288 9.216 111.104 31.744 79.872 52.224 162.304 101.376 256.512 159.744-16.896-43.52-28.16-71.168-38.912-99.328-11.264-28.16-22.016-56.832-33.792-87.04 10.24-1.536 16.896-3.584 24.064-4.096 112.128-8.192 166.4-64.512 167.424-176.64 1.024-79.872 2.048-159.232 0-238.592zM545.28 581.632c-28.16 0-51.2-23.04-51.2-51.2s23.04-51.2 51.2-51.2 51.2 23.04 51.2 51.2-23.04 51.2-51.2 51.2z m212.48 0c-28.16 0-51.2-23.04-51.2-51.2s23.04-51.2 51.2-51.2 51.2 23.04 51.2 51.2-23.04 51.2-51.2 51.2z m211.968 0c-28.16 0-51.2-23.04-51.2-51.2s23.04-51.2 51.2-51.2 51.2 23.04 51.2 51.2-22.528 51.2-51.2 51.2z" p-id="29501"></path></svg>